solid
  facet normal -1.000000 -0.000000 -0.000000
    outer loop
      vertex -15.000000 -15.000000 0.000000
      vertex -15.000000 -15.000000 4.000000
      vertex -15.000000 15.000000 0.000000
    endloop
  endfacet
  facet normal -1.000000 0.000000 0.000000
    outer loop
      vertex -15.000000 15.000000 0.000000
      vertex -15.000000 -15.000000 4.000000
      vertex -15.000000 15.000000 4.000000
    endloop
  endfacet
  facet normal 0.000000 -1.000000 0.000000
    outer loop
      vertex -15.000000 -15.000000 4.000000
      vertex -15.000000 -15.000000 0.000000
      vertex 15.000000 -15.000000 0.000000
    endloop
  endfacet
  facet normal 0.000000 -1.000000 0.000000
    outer loop
      vertex 15.000000 -15.000000 4.000000
      vertex -15.000000 -15.000000 4.000000
      vertex 15.000000 -15.000000 0.000000
    endloop
  endfacet
  facet normal 0.000000 -0.000000 -1.000000
    outer loop
      vertex 10.000000 -7.267949 0.000000
      vertex -15.000000 15.000000 0.000000
      vertex 15.000000 15.000000 0.000000
    endloop
  endfacet
  facet normal 0.000000 -0.000000 -1.000000
    outer loop
      vertex -15.000000 -15.000000 0.000000
      vertex -15.000000 15.000000 0.000000
      vertex -11.000000 -9.000000 0.000000
    endloop
  endfacet
  facet normal 0.000000 0.000000 -1.000000
    outer loop
      vertex -15.000000 -15.000000 0.000000
      vertex -11.000000 -9.000000 0.000000
      vertex -10.000000 -10.732051 0.000000
    endloop
  endfacet
  facet normal -0.000000 0.000000 -1.000000
    outer loop
      vertex -15.000000 -15.000000 0.000000
      vertex -10.000000 -10.732051 0.000000
      vertex 15.000000 -15.000000 0.000000
    endloop
  endfacet
  facet normal 0.000000 0.000000 -1.000000
    outer loop
      vertex -10.000000 -10.732051 0.000000
      vertex -8.000000 -10.732051 0.000000
      vertex 15.000000 -15.000000 0.000000
    endloop
  endfacet
  facet normal -0.000000 -0.000000 -1.000000
    outer loop
      vertex -8.000000 -7.267949 0.000000
      vertex -15.000000 15.000000 0.000000
      vertex -7.000000 -9.000000 0.000000
    endloop
  endfacet
  facet normal 0.000000 -0.000000 -1.000000
    outer loop
      vertex 7.000000 -9.000000 0.000000
      vertex -15.000000 15.000000 0.000000
      vertex 8.000000 -7.267949 0.000000
    endloop
  endfacet
  facet normal -0.000000 -0.000000 -1.000000
    outer loop
      vertex -10.000000 -7.267949 0.000000
      vertex -15.000000 15.000000 0.000000
      vertex -8.000000 -7.267949 0.000000
    endloop
  endfacet
  facet normal 0.000000 -0.000000 -1.000000
    outer loop
      vertex -11.000000 -9.000000 0.000000
      vertex -15.000000 15.000000 0.000000
      vertex -10.000000 -7.267949 0.000000
    endloop
  endfacet
  facet normal -0.000000 -0.000000 -1.000000
    outer loop
      vertex -7.000000 -9.000000 0.000000
      vertex -15.000000 15.000000 0.000000
      vertex 7.000000 -9.000000 0.000000
    endloop
  endfacet
  facet normal 0.000000 0.000000 -1.000000
    outer loop
      vertex -7.000000 -9.000000 0.000000
      vertex 7.000000 -9.000000 0.000000
      vertex 8.000000 -10.732051 0.000000
    endloop
  endfacet
  facet normal 0.000000 0.000000 -1.000000
    outer loop
      vertex -7.000000 -9.000000 0.000000
      vertex 8.000000 -10.732051 0.000000
      vertex 15.000000 -15.000000 0.000000
    endloop
  endfacet
  facet normal 0.000000 0.000000 -1.000000
    outer loop
      vertex 10.000000 -10.732051 0.000000
      vertex 15.000000 -15.000000 0.000000
      vertex 8.000000 -10.732051 0.000000
    endloop
  endfacet
  facet normal 0.000000 0.000000 -1.000000
    outer loop
      vertex 11.000000 -9.000000 0.000000
      vertex 15.000000 -15.000000 0.000000
      vertex 10.000000 -10.732051 0.000000
    endloop
  endfacet
  facet normal 0.000000 0.000000 -1.000000
    outer loop
      vertex 15.000000 -15.000000 0.000000
      vertex 11.000000 -9.000000 0.000000
      vertex 15.000000 15.000000 0.000000
    endloop
  endfacet
  facet normal 0.000000 -0.000000 -1.000000
    outer loop
      vertex 11.000000 -9.000000 0.000000
      vertex 10.000000 -7.267949 0.000000
      vertex 15.000000 15.000000 0.000000
    endloop
  endfacet
  facet normal -0.000000 -0.000000 -1.000000
    outer loop
      vertex 8.000000 -7.267949 0.000000
      vertex -15.000000 15.000000 0.000000
      vertex 10.000000 -7.267949 0.000000
    endloop
  endfacet
  facet normal 0.000000 0.000000 -1.000000
    outer loop
      vertex -7.000000 -9.000000 0.000000
      vertex 15.000000 -15.000000 0.000000
      vertex -8.000000 -10.732051 0.000000
    endloop
  endfacet
  facet normal 0.000000 1.000000 0.000000
    outer loop
      vertex -15.000000 15.000000 0.000000
      vertex -15.000000 15.000000 4.000000
      vertex 15.000000 15.000000 0.000000
    endloop
  endfacet
  facet normal 0.000000 1.000000 0.000000
    outer loop
      vertex 15.000000 15.000000 0.000000
      vertex -15.000000 15.000000 4.000000
      vertex 15.000000 15.000000 4.000000
    endloop
  endfacet
  facet normal 0.000000 -0.000000 1.000000
    outer loop
      vertex -10.000000 -10.732051 4.000000
      vertex -15.000000 -15.000000 4.000000
      vertex 15.000000 -15.000000 4.000000
    endloop
  endfacet
  facet normal 0.000000 -0.000000 1.000000
    outer loop
      vertex -8.000000 -10.732051 4.000000
      vertex -10.000000 -10.732051 4.000000
      vertex 15.000000 -15.000000 4.000000
    endloop
  endfacet
  facet normal 0.000000 -0.000000 1.000000
    outer loop
      vertex -11.000000 -9.000000 4.000000
      vertex -15.000000 -15.000000 4.000000
      vertex -10.000000 -10.732051 4.000000
    endloop
  endfacet
  facet normal 0.000000 0.000000 1.000000
    outer loop
      vertex -8.000000 -7.267949 4.000000
      vertex -7.000000 -9.000000 4.000000
      vertex 15.000000 -15.000000 4.000000
    endloop
  endfacet
  facet normal 0.000000 -0.000000 1.000000
    outer loop
      vertex -15.000000 15.000000 4.000000
      vertex -15.000000 -15.000000 4.000000
      vertex -11.000000 -9.000000 4.000000
    endloop
  endfacet
  facet normal 0.000000 -0.000000 1.000000
    outer loop
      vertex 10.000000 -10.732051 4.000000
      vertex 8.000000 -10.732051 4.000000
      vertex 15.000000 -15.000000 4.000000
    endloop
  endfacet
  facet normal -0.000000 -0.000000 1.000000
    outer loop
      vertex 8.000000 -10.732051 4.000000
      vertex -8.000000 -7.267949 4.000000
      vertex 15.000000 -15.000000 4.000000
    endloop
  endfacet
  facet normal 0.000000 0.000000 1.000000
    outer loop
      vertex -15.000000 15.000000 4.000000
      vertex -10.000000 -7.267949 4.000000
      vertex -8.000000 -7.267949 4.000000
    endloop
  endfacet
  facet normal 0.000000 -0.000000 1.000000
    outer loop
      vertex -7.000000 -9.000000 4.000000
      vertex -8.000000 -10.732051 4.000000
      vertex 15.000000 -15.000000 4.000000
    endloop
  endfacet
  facet normal 0.000000 0.000000 1.000000
    outer loop
      vertex -15.000000 15.000000 4.000000
      vertex -8.000000 -7.267949 4.000000
      vertex 8.000000 -10.732051 4.000000
    endloop
  endfacet
  facet normal 0.000000 0.000000 1.000000
    outer loop
      vertex -15.000000 15.000000 4.000000
      vertex 8.000000 -10.732051 4.000000
      vertex 7.000000 -9.000000 4.000000
    endloop
  endfacet
  facet normal 0.000000 0.000000 1.000000
    outer loop
      vertex 15.000000 15.000000 4.000000
      vertex -15.000000 15.000000 4.000000
      vertex 8.000000 -7.267949 4.000000
    endloop
  endfacet
  facet normal 0.000000 0.000000 1.000000
    outer loop
      vertex 15.000000 15.000000 4.000000
      vertex 10.000000 -7.267949 4.000000
      vertex 15.000000 -15.000000 4.000000
    endloop
  endfacet
  facet normal 0.000000 0.000000 1.000000
    outer loop
      vertex 15.000000 15.000000 4.000000
      vertex 8.000000 -7.267949 4.000000
      vertex 10.000000 -7.267949 4.000000
    endloop
  endfacet
  facet normal 0.000000 0.000000 1.000000
    outer loop
      vertex 10.000000 -7.267949 4.000000
      vertex 11.000000 -9.000000 4.000000
      vertex 15.000000 -15.000000 4.000000
    endloop
  endfacet
  facet normal 0.000000 -0.000000 1.000000
    outer loop
      vertex 11.000000 -9.000000 4.000000
      vertex 10.000000 -10.732051 4.000000
      vertex 15.000000 -15.000000 4.000000
    endloop
  endfacet
  facet normal 0.000000 0.000000 1.000000
    outer loop
      vertex -11.000000 -9.000000 4.000000
      vertex -10.000000 -7.267949 4.000000
      vertex -15.000000 15.000000 4.000000
    endloop
  endfacet
  facet normal 0.000000 0.000000 1.000000
    outer loop
      vertex 7.000000 -9.000000 4.000000
      vertex 8.000000 -7.267949 4.000000
      vertex -15.000000 15.000000 4.000000
    endloop
  endfacet
  facet normal 1.000000 0.000000 -0.000000
    outer loop
      vertex 15.000000 -15.000000 4.000000
      vertex 15.000000 -15.000000 0.000000
      vertex 15.000000 15.000000 0.000000
    endloop
  endfacet
  facet normal 1.000000 0.000000 0.000000
    outer loop
      vertex 15.000000 15.000000 4.000000
      vertex 15.000000 -15.000000 4.000000
      vertex 15.000000 15.000000 0.000000
    endloop
  endfacet
  facet normal 0.866025 -0.500000 0.000000
    outer loop
      vertex -10.000000 -7.267949 0.000000
      vertex -10.000000 -7.267949 4.000000
      vertex -11.000000 -9.000000 4.000000
    endloop
  endfacet
  facet normal 0.866025 -0.500000 0.000000
    outer loop
      vertex -11.000000 -9.000000 0.000000
      vertex -10.000000 -7.267949 0.000000
      vertex -11.000000 -9.000000 4.000000
    endloop
  endfacet
  facet normal 0.866025 0.500000 0.000000
    outer loop
      vertex -11.000000 -9.000000 4.000000
      vertex -10.000000 -10.732051 4.000000
      vertex -10.000000 -10.732051 0.000000
    endloop
  endfacet
  facet normal 0.866025 0.500000 0.000000
    outer loop
      vertex -11.000000 -9.000000 0.000000
      vertex -11.000000 -9.000000 4.000000
      vertex -10.000000 -10.732051 0.000000
    endloop
  endfacet
  facet normal 0.000000 -1.000000 0.000000
    outer loop
      vertex -8.000000 -7.267949 0.000000
      vertex -8.000000 -7.267949 4.000000
      vertex -10.000000 -7.267949 4.000000
    endloop
  endfacet
  facet normal -0.000000 -1.000000 -0.000000
    outer loop
      vertex -10.000000 -7.267949 0.000000
      vertex -8.000000 -7.267949 0.000000
      vertex -10.000000 -7.267949 4.000000
    endloop
  endfacet
  facet normal -0.866025 -0.500000 0.000000
    outer loop
      vertex -7.000000 -9.000000 4.000000
      vertex -8.000000 -7.267949 4.000000
      vertex -7.000000 -9.000000 0.000000
    endloop
  endfacet
  facet normal -0.866025 -0.500000 0.000000
    outer loop
      vertex -7.000000 -9.000000 0.000000
      vertex -8.000000 -7.267949 4.000000
      vertex -8.000000 -7.267949 0.000000
    endloop
  endfacet
  facet normal -0.866025 0.500000 0.000000
    outer loop
      vertex -7.000000 -9.000000 4.000000
      vertex -7.000000 -9.000000 0.000000
      vertex -8.000000 -10.732051 4.000000
    endloop
  endfacet
  facet normal -0.866025 0.500000 0.000000
    outer loop
      vertex -8.000000 -10.732051 4.000000
      vertex -7.000000 -9.000000 0.000000
      vertex -8.000000 -10.732051 0.000000
    endloop
  endfacet
  facet normal 0.000000 1.000000 0.000000
    outer loop
      vertex -8.000000 -10.732051 4.000000
      vertex -8.000000 -10.732051 0.000000
      vertex -10.000000 -10.732051 4.000000
    endloop
  endfacet
  facet normal 0.000000 1.000000 -0.000000
    outer loop
      vertex -10.000000 -10.732051 4.000000
      vertex -8.000000 -10.732051 0.000000
      vertex -10.000000 -10.732051 0.000000
    endloop
  endfacet
  facet normal 0.866025 0.500000 0.000000
    outer loop
      vertex 7.000000 -9.000000 4.000000
      vertex 8.000000 -10.732051 4.000000
      vertex 8.000000 -10.732051 0.000000
    endloop
  endfacet
  facet normal 0.866025 0.500000 0.000000
    outer loop
      vertex 7.000000 -9.000000 0.000000
      vertex 7.000000 -9.000000 4.000000
      vertex 8.000000 -10.732051 0.000000
    endloop
  endfacet
  facet normal 0.866025 -0.500000 0.000000
    outer loop
      vertex 8.000000 -7.267949 0.000000
      vertex 8.000000 -7.267949 4.000000
      vertex 7.000000 -9.000000 4.000000
    endloop
  endfacet
  facet normal 0.866025 -0.500000 0.000000
    outer loop
      vertex 7.000000 -9.000000 0.000000
      vertex 8.000000 -7.267949 0.000000
      vertex 7.000000 -9.000000 4.000000
    endloop
  endfacet
  facet normal 0.000000 -1.000000 0.000000
    outer loop
      vertex 10.000000 -7.267949 0.000000
      vertex 10.000000 -7.267949 4.000000
      vertex 8.000000 -7.267949 4.000000
    endloop
  endfacet
  facet normal -0.000000 -1.000000 -0.000000
    outer loop
      vertex 8.000000 -7.267949 0.000000
      vertex 10.000000 -7.267949 0.000000
      vertex 8.000000 -7.267949 4.000000
    endloop
  endfacet
  facet normal -0.866025 -0.500000 0.000000
    outer loop
      vertex 11.000000 -9.000000 4.000000
      vertex 10.000000 -7.267949 4.000000
      vertex 11.000000 -9.000000 0.000000
    endloop
  endfacet
  facet normal -0.866025 -0.500000 0.000000
    outer loop
      vertex 11.000000 -9.000000 0.000000
      vertex 10.000000 -7.267949 4.000000
      vertex 10.000000 -7.267949 0.000000
    endloop
  endfacet
  facet normal -0.866025 0.500000 0.000000
    outer loop
      vertex 11.000000 -9.000000 4.000000
      vertex 11.000000 -9.000000 0.000000
      vertex 10.000000 -10.732051 4.000000
    endloop
  endfacet
  facet normal -0.866025 0.500000 0.000000
    outer loop
      vertex 10.000000 -10.732051 4.000000
      vertex 11.000000 -9.000000 0.000000
      vertex 10.000000 -10.732051 0.000000
    endloop
  endfacet
  facet normal 0.000000 1.000000 0.000000
    outer loop
      vertex 10.000000 -10.732051 4.000000
      vertex 10.000000 -10.732051 0.000000
      vertex 8.000000 -10.732051 4.000000
    endloop
  endfacet
  facet normal 0.000000 1.000000 -0.000000
    outer loop
      vertex 8.000000 -10.732051 4.000000
      vertex 10.000000 -10.732051 0.000000
      vertex 8.000000 -10.732051 0.000000
    endloop
  endfacet
endsolid
